<?xml version="1.0" standalone="no"?>
<!DOCTYPE svg PUBLIC "-//W3C//DTD SVG 20010904//EN"
 "http://www.w3.org/TR/2001/REC-SVG-20010904/DTD/svg10.dtd">
<svg version="1.0" xmlns="http://www.w3.org/2000/svg"
 width="260.000000pt" height="260.000000pt" viewBox="0 0 260.000000 260.000000"
 preserveAspectRatio="xMidYMid meet">
<metadata>
Created by potrace 1.14, written by Peter Selinger 2001-2017
</metadata>
<g transform="translate(0.000000,260.000000) scale(0.100000,-0.100000)"
fill="#000000" stroke="none">
<path d="M1150 2593 c-14 -2 -59 -11 -102 -19 -539 -106 -956 -544 -1035
-1089 -10 -65 -10 -284 -1 -360 19 -158 86 -349 170 -488 208 -341 529 -557
932 -625 84 -14 348 -7 436 12 550 118 944 530 1035 1081 13 79 14 328 1 390
-7 32 -39 177 -41 185 -1 3 -5 14 -9 25 -4 11 -13 34 -18 50 -27 77 -114 238
-168 310 -213 284 -505 463 -853 522 -40 6 -313 11 -347 6z m923 -570 c-9 -7
-20 -13 -24 -13 -4 0 -17 -20 -29 -45 -22 -45 -22 -52 -25 -613 -1 -312 -5
-579 -9 -593 -35 -148 -115 -238 -236 -264 -92 -21 -228 -7 -300 30 -26 14
-36 14 -92 -1 -35 -9 -70 -19 -78 -22 -22 -8 -710 -8 -710 0 0 4 9 9 19 13 10
3 28 28 40 55 21 48 21 60 21 699 0 640 0 652 -21 696 -11 24 -29 47 -40 50
-10 4 -19 9 -19 13 0 4 342 7 760 7 611 0 757 -2 743 -12z"/>
<path d="M800 1953 c-1 -82 -1 -529 0 -580 l0 -43 115 0 116 0 -1 294 c-1 282
-2 296 -23 338 l-22 43 -92 3 -93 3 0 -58z"/>
<path d="M1316 1982 c111 -54 174 -126 197 -229 40 -172 -32 -319 -190 -395
-35 -16 -63 -32 -63 -35 0 -2 4 -2 9 1 4 3 41 -4 82 -15 132 -37 237 -5 287
86 9 15 11 -11 12 -114 l0 -134 -23 33 c-24 37 -66 65 -112 76 -29 6 -29 6 10
-23 55 -40 88 -81 122 -150 25 -53 28 -68 28 -168 0 -93 -4 -118 -23 -160 -13
-27 -26 -52 -30 -55 -5 -3 -15 -15 -23 -26 -8 -12 -33 -37 -57 -57 l-42 -35
31 -31 c17 -17 38 -32 47 -32 150 -13 213 22 250 140 15 50 17 115 17 650 l0
595 -43 33 c-74 56 -123 66 -347 70 l-200 4 61 -29z"/>
<path d="M1180 1670 c0 -170 3 -310 8 -310 12 0 72 39 96 63 111 111 113 358
3 483 -34 38 -83 74 -102 74 -3 0 -5 -139 -5 -310z"/>
<path d="M804 1298 c-4 -7 -6 -216 -4 -636 l0 -142 92 2 92 3 20 35 c20 33 21
53 24 390 l3 355 -111 0 c-62 0 -114 -3 -116 -7z"/>
<path d="M1188 1293 c7 -3 16 -2 19 1 4 3 -2 6 -13 5 -11 0 -14 -3 -6 -6z"/>
<path d="M1183 1254 c-2 -6 -3 -157 -1 -335 3 -331 8 -369 44 -383 16 -6 82
16 118 39 23 15 24 19 11 38 -25 40 -23 105 5 135 26 27 64 28 90 2 11 -11 22
-20 24 -20 14 0 33 99 35 176 3 120 -24 205 -87 275 -25 27 -59 57 -76 66 -38
20 -156 25 -163 7z"/>
</g>
</svg>
